<?xml version="1.0" standalone="no"?>
<!DOCTYPE svg PUBLIC "-//W3C//DTD SVG 20010904//EN"
 "http://www.w3.org/TR/2001/REC-SVG-20010904/DTD/svg10.dtd">
<svg version="1.0" xmlns="http://www.w3.org/2000/svg"
 width="200.000000pt" height="284.000000pt" viewBox="0 0 200.000000 84.000000"
 preserveAspectRatio="xMidYMid meet">

<g transform="translate(0.000000,84.000000) scale(0.100000,-0.100000)"
fill="#FFFFFF" stroke="none">
<path d="M0 600 l0 -240 715 0 715 0 0 240 0 240 -715 0 -715 0 0 -240z m384
144 c11 -4 16 -19 16 -44 0 -38 0 -38 28 -28 39 15 78 3 99 -29 14 -21 18 -48
18 -117 l0 -91 -37 -3 -37 -3 -3 83 -3 83 -30 0 -30 0 -3 -83 -3 -83 -37 3
-37 3 -3 149 c-2 113 1 151 10 158 16 9 31 10 52 2z m784 -30 c3 -30 1 -32
-60 -62 -10 -5 -10 82 -1 92 4 4 19 6 33 4 20 -2 26 -9 28 -34z m-890 -58 c13
-13 13 -18 -2 -41 -14 -21 -20 -23 -36 -15 -42 22 -80 -1 -80 -49 0 -40 22
-55 66 -47 28 6 39 3 50 -11 7 -10 14 -23 14 -29 0 -17 -46 -34 -91 -34 -33 0
-48 7 -74 33 -64 64 -51 161 25 200 40 21 104 17 128 -7z m718 8 c19 -9 39
-25 44 -34 8 -15 2 -23 -33 -44 -41 -25 -42 -25 -56 -6 -16 23 -34 26 -49 7
-8 -9 -4 -24 14 -55 14 -23 27 -42 29 -42 3 0 27 14 53 30 27 17 54 30 60 30
20 0 -6 -64 -38 -93 -25 -22 -40 -27 -81 -27 -44 0 -55 4 -84 33 -64 64 -51
161 25 199 44 22 72 23 116 2z m320 5 c3 -6 -12 -30 -34 -52 l-41 -42 49 -64
c28 -35 50 -67 50 -72 0 -5 -18 -9 -40 -9 -36 0 -44 4 -72 45 -18 25 -35 45
-39 45 -10 0 -19 -28 -19 -61 0 -27 -3 -29 -35 -29 l-35 0 0 78 1 77 77 47
c75 46 124 59 138 37z m-556 -39 c17 -15 30 -33 30 -39 0 -7 -29 -30 -65 -52
-36 -23 -62 -45 -59 -50 10 -17 36 -9 66 21 51 52 95 32 64 -29 -20 -38 -63
-61 -116 -61 -32 0 -48 7 -78 34 -34 32 -37 39 -37 89 0 45 5 60 24 81 47 50
121 52 171 6z"/>
<path d="M642 588 c-7 -7 -12 -18 -12 -26 0 -10 7 -9 30 5 17 9 30 21 30 25 0
12 -35 9 -48 -4z"/>
<path d="M1510 315 c0 -8 5 -15 10 -15 6 0 10 7 10 15 0 8 -4 15 -10 15 -5 0
-10 -7 -10 -15z"/>
<path d="M1330 200 c0 -73 4 -120 10 -120 6 0 10 47 10 120 0 73 -4 120 -10
120 -6 0 -10 -47 -10 -120z"/>
<path d="M1420 294 c0 -9 -8 -23 -17 -30 -17 -13 -17 -13 0 -14 15 0 17 -11
17 -80 0 -63 3 -82 15 -87 21 -7 32 4 17 19 -18 18 -16 137 3 144 8 4 15 10
15 15 0 5 -7 9 -15 9 -8 0 -15 9 -15 20 0 11 -4 20 -10 20 -5 0 -10 -7 -10
-16z"/>
<path d="M380 243 c-35 -31 -42 -76 -20 -117 22 -43 96 -60 135 -33 24 19 3
32 -24 15 -27 -17 -71 -1 -90 33 -19 33 -8 74 25 96 22 14 31 15 57 5 37 -14
50 -6 23 14 -31 22 -72 17 -106 -13z"/>
<path d="M567 246 c-14 -13 -29 -36 -33 -50 -8 -32 12 -82 40 -101 41 -29 113
-13 136 31 50 93 -67 191 -143 120z m108 -21 c14 -13 25 -36 25 -50 0 -32 -41
-75 -73 -75 -27 0 -66 33 -68 58 -3 34 3 47 27 70 32 29 59 28 89 -3z"/>
<path d="M770 175 c0 -111 16 -128 22 -24 4 74 19 99 59 99 35 0 49 -28 49
-101 0 -41 4 -69 10 -69 7 0 10 30 8 82 -3 78 -5 83 -30 97 -22 13 -33 13 -58
4 -17 -6 -32 -7 -36 -2 -16 27 -24 -1 -24 -86z"/>
<path d="M977 252 c-32 -35 -13 -69 48 -89 32 -10 45 -40 23 -54 -20 -13 -45
-11 -63 7 -18 18 -30 13 -22 -10 15 -38 101 -31 119 9 9 20 8 28 -6 44 -10 11
-31 23 -46 26 -39 9 -56 30 -40 50 15 18 41 20 57 4 6 -6 17 -9 23 -7 22 7
-19 38 -49 38 -15 0 -35 -8 -44 -18z"/>
<path d="M1130 200 c0 -62 3 -74 25 -95 25 -26 69 -33 80 -15 4 6 15 8 26 5
18 -6 19 0 19 84 0 54 -4 91 -10 91 -6 0 -10 -28 -10 -63 0 -73 -14 -99 -55
-99 -41 0 -55 26 -55 99 0 35 -4 63 -10 63 -6 0 -10 -30 -10 -70z"/>
<path d="M1510 175 c0 -57 4 -95 10 -95 6 0 10 38 10 95 0 57 -4 95 -10 95 -6
0 -10 -38 -10 -95z"/>
<path d="M1590 175 c0 -57 4 -95 10 -95 6 0 10 30 10 69 0 61 3 72 22 85 30
21 44 20 68 -4 16 -16 20 -33 20 -85 0 -37 4 -65 10 -65 6 0 10 31 10 73 0 60
-4 77 -20 95 -23 24 -68 29 -89 10 -11 -10 -14 -10 -18 0 -13 36 -23 1 -23
-83z"/>
<path d="M1819 241 c-76 -77 17 -202 112 -151 30 16 25 -16 -6 -36 -18 -12
-36 -15 -65 -10 -39 6 -55 -6 -24 -18 48 -18 115 2 133 41 13 29 15 203 2 203
-5 0 -11 -5 -13 -11 -3 -9 -9 -9 -25 0 -39 20 -82 13 -114 -18z m100 -1 c10
-5 24 -22 30 -39 21 -49 -15 -101 -70 -101 -28 0 -69 44 -69 75 0 14 11 37 25
50 25 26 54 31 84 15z"/>
</g>
</svg>
